# xmcd
# 
# Track frame offsets:
#     150
#     14240
#     30536
#     46008
#     62567
#     73456
#     92317
#     104975
#     119576
#     131692
# 
# Disc length: 1931
# 
# Revision: 0
# Processed by: cddbd v1.5.2PL0 Copyright (c) Steve Scherf et al.
# Submitted via: fre:ac v1.1beta1pre5
# 
DISCID=9207890a
DTITLE=Λουδοβίκος των Ανωγείων - Ο Χαΐνης
DYEAR=1990
DGENRE=Greek
TTITLE0=Το δάκρυ της χαράς
TTITLE1=Κόρη στην ακροποταμιά
TTITLE2=Ο όρκος της Αρετούσας
TTITLE3=Ο ναύτης
TTITLE4=Οργανικό
TTITLE5=Ο Χαΐνης
TTITLE6=Το κέντημα
TTITLE7=Μόνη στο μπαλκόνι
TTITLE8=Το φως του φεγγαριού
TTITLE9=Μήλο κόκκινο
EXTD=YEAR: 1990
EXTT0=
EXTT1=
EXTT2=
EXTT3=
EXTT4=
EXTT5=
EXTT6=
EXTT7=
EXTT8=
EXTT9=
PLAYORDER=
